<svg width="20" height="20" viewBox="0 0 20 20" fill="none" xmlns="http://www.w3.org/2000/svg">
<g clip-path="url(#clip0_2016_3987)">
<path d="M10.9059 17.8232L11.5513 18.2052L10.9059 17.8232ZM11.3576 17.0599L10.7122 16.6779H10.7122L11.3576 17.0599ZM8.643 17.0599L7.99758 17.442H7.99758L8.643 17.0599ZM9.09475 17.8232L9.74016 17.4411L9.74016 17.4411L9.09475 17.8232ZM1.98416 13.2613L2.67707 12.9742H2.67707L1.98416 13.2613ZM6.49164 15.8263L6.47872 16.5762L6.49164 15.8263ZM4.23914 15.5162L3.95213 16.2092H3.95213L4.23914 15.5162ZM18.0165 13.2613L18.7094 13.5483V13.5483L18.0165 13.2613ZM13.509 15.8263L13.4961 15.0764L13.509 15.8263ZM15.7615 15.5162L16.0485 16.2092L16.0485 16.2092L15.7615 15.5162ZM16.3441 2.28075L15.9522 2.92023L16.3441 2.28075ZM17.7197 3.65634L18.3591 3.26446V3.26446L17.7197 3.65634ZM3.65658 2.28075L3.26471 1.64127V1.64127L3.65658 2.28075ZM2.28099 3.65634L1.64151 3.26446H1.64151L2.28099 3.65634ZM7.83599 16.0083L8.21306 15.36L8.21306 15.36L7.83599 16.0083ZM11.5513 18.2052L12.003 17.442L10.7122 16.6779L10.2605 17.4411L11.5513 18.2052ZM7.99758 17.442L8.44933 18.2052L9.74016 17.4411L9.28841 16.6779L7.99758 17.442ZM10.2605 17.4411C10.1482 17.6307 9.85239 17.6307 9.74016 17.4411L8.44933 18.2052C9.14238 19.3761 10.8582 19.3761 11.5513 18.2052L10.2605 17.4411ZM8.75033 2.41675H11.2503V0.916748H8.75033V2.41675ZM17.5837 8.75008V9.58342H19.0837V8.75008H17.5837ZM2.41699 9.58342V8.75008H0.916992V9.58342H2.41699ZM0.916992 9.58342C0.916992 10.5439 0.916586 11.3018 0.958378 11.9143C1.00063 12.5335 1.0885 13.0588 1.29125 13.5483L2.67707 12.9742C2.56265 12.698 2.49194 12.3551 2.4549 11.8122C2.4174 11.2626 2.41699 10.5644 2.41699 9.58342H0.916992ZM6.50456 15.0764C5.45835 15.0584 4.93174 14.9913 4.52616 14.8233L3.95213 16.2092C4.64705 16.497 5.43266 16.5582 6.47872 16.5762L6.50456 15.0764ZM1.29125 13.5483C1.79026 14.753 2.74741 15.7101 3.95213 16.2092L4.52616 14.8233C3.68898 14.4766 3.02384 13.8114 2.67707 12.9742L1.29125 13.5483ZM17.5837 9.58342C17.5837 10.5644 17.5833 11.2626 17.5458 11.8122C17.5087 12.3551 17.438 12.698 17.3236 12.9742L18.7094 13.5483C18.9121 13.0588 19 12.5335 19.0423 11.9143C19.0841 11.3018 19.0837 10.5439 19.0837 9.58342H17.5837ZM13.5219 16.5762C14.568 16.5582 15.3536 16.497 16.0485 16.2092L15.4745 14.8233C15.0689 14.9913 14.5423 15.0584 13.4961 15.0764L13.5219 16.5762ZM17.3236 12.9742C16.9768 13.8114 16.3117 14.4766 15.4745 14.8233L16.0485 16.2092C17.2532 15.7101 18.2104 14.753 18.7094 13.5483L17.3236 12.9742ZM11.2503 2.41675C12.6288 2.41675 13.61 2.41754 14.3734 2.49013C15.1257 2.56166 15.5889 2.69758 15.9522 2.92023L16.7359 1.64127C16.0973 1.24992 15.3775 1.07884 14.5154 0.996865C13.6645 0.915957 12.5997 0.916748 11.2503 0.916748V2.41675ZM19.0837 8.75008C19.0837 7.40067 19.0845 6.33595 19.0035 5.48501C18.9216 4.6229 18.7505 3.90309 18.3591 3.26446L17.0802 4.04821C17.3028 4.41154 17.4387 4.87468 17.5103 5.62699C17.5829 6.39046 17.5837 7.37163 17.5837 8.75008H19.0837ZM15.9522 2.92023C16.4119 3.20195 16.7985 3.58848 17.0802 4.04821L18.3591 3.26446C17.9537 2.6029 17.3975 2.04667 16.7359 1.64127L15.9522 2.92023ZM8.75033 0.916748C7.40092 0.916748 6.3362 0.915957 5.48525 0.996865C4.62314 1.07884 3.90333 1.24992 3.26471 1.64127L4.04846 2.92023C4.41179 2.69758 4.87492 2.56166 5.62723 2.49013C6.3907 2.41754 7.37187 2.41675 8.75033 2.41675V0.916748ZM2.41699 8.75008C2.41699 7.37163 2.41778 6.39046 2.49037 5.62699C2.5619 4.87468 2.69782 4.41154 2.92047 4.04821L1.64151 3.26446C1.25016 3.90309 1.07908 4.6229 0.997109 5.48501C0.916201 6.33595 0.916992 7.40067 0.916992 8.75008H2.41699ZM3.26471 1.64127C2.60314 2.04667 2.04692 2.6029 1.64151 3.26446L2.92047 4.04821C3.2022 3.58848 3.58872 3.20195 4.04846 2.92023L3.26471 1.64127ZM9.28841 16.6779C9.12042 16.3941 8.96847 16.1358 8.81973 15.9317C8.66175 15.715 8.47521 15.5124 8.21306 15.36L7.45891 16.6566C7.47818 16.6678 7.51994 16.6951 7.60752 16.8152C7.70433 16.9481 7.81518 17.1338 7.99758 17.442L9.28841 16.6779ZM6.47872 16.5762C6.84695 16.5825 7.07193 16.5872 7.24147 16.6059C7.39711 16.6232 7.44212 16.6468 7.45892 16.6566L8.21306 15.36C7.94844 15.2061 7.67558 15.1448 7.40656 15.115C7.15144 15.0868 6.84495 15.0823 6.50456 15.0764L6.47872 16.5762ZM12.003 17.442C12.1854 17.1338 12.2963 16.9481 12.3931 16.8152C12.4807 16.6951 12.5224 16.6678 12.5417 16.6566L11.7876 15.36C11.5254 15.5124 11.3389 15.715 11.1809 15.9317C11.0321 16.1358 10.8802 16.3941 10.7122 16.6779L12.003 17.442ZM13.4961 15.0764C13.1557 15.0823 12.8492 15.0868 12.5941 15.115C12.325 15.1448 12.0522 15.2061 11.7876 15.36L12.5417 16.6566C12.5585 16.6468 12.6035 16.6232 12.7591 16.6059C12.9287 16.5872 13.1537 16.5825 13.5219 16.5762L13.4961 15.0764Z" fill="#6F7A91"/>
<path d="M6.66699 7.5H13.3337" stroke="#6F7A91" stroke-width="1.5" stroke-linecap="round"/>
<path d="M6.66699 10.4167H11.2503" stroke="#6F7A91" stroke-width="1.5" stroke-linecap="round"/>
</g>
<defs>
<clipPath id="clip0_2016_3987">
<rect width="20" height="20" fill="white"/>
</clipPath>
</defs>
</svg>
