<svg width="32" height="32" viewBox="0 0 32 32" fill="none" xmlns="http://www.w3.org/2000/svg">
<path fill-rule="evenodd" clip-rule="evenodd" d="M2.66699 16V10.6667C2.66699 6.89545 2.66699 5.00983 3.83856 3.83826C5.01014 2.66669 6.89576 2.66669 10.667 2.66669H21.3337C25.1049 2.66669 26.9905 2.66669 28.1621 3.83826C29.3337 5.00983 29.3337 6.89545 29.3337 10.6667V16C29.3337 19.7713 29.3337 21.6569 28.1621 22.8284C27.527 23.4636 26.682 23.7544 25.4406 23.8875C25.342 23.7543 25.2486 23.6494 25.1819 23.5761C25.0271 23.4058 24.8307 23.2123 24.6403 23.0246L22.6497 21.0616L21.9145 20.3169C21.4314 17.4869 18.9677 15.3334 16.0004 15.3334C13.0331 15.3334 10.5694 17.4869 10.0863 20.3169L9.35114 21.0616L7.36059 23.0245C7.17017 23.2122 6.97377 23.4058 6.81888 23.5761C6.75225 23.6494 6.65885 23.7543 6.56019 23.8876C5.31868 23.7544 4.4737 23.4636 3.83856 22.8284C2.66699 21.6569 2.66699 19.7713 2.66699 16ZM12.0003 7.00002C11.448 7.00002 11.0003 7.44774 11.0003 8.00002C11.0003 8.5523 11.448 9.00002 12.0003 9.00002H20.0003C20.5526 9.00002 21.0003 8.5523 21.0003 8.00002C21.0003 7.44774 20.5526 7.00002 20.0003 7.00002H12.0003ZM8.33366 12.6667C8.33366 12.1144 8.78137 11.6667 9.33366 11.6667H22.667C23.2193 11.6667 23.667 12.1144 23.667 12.6667C23.667 13.219 23.2193 13.6667 22.667 13.6667H9.33366C8.78137 13.6667 8.33366 13.219 8.33366 12.6667Z" fill="#3286EE"/>
<path d="M20.0003 21.3334C20.0003 23.5425 18.2095 25.3334 16.0003 25.3334C13.7912 25.3334 12.0003 23.5425 12.0003 21.3334C12.0003 19.1242 13.7912 17.3334 16.0003 17.3334C18.2095 17.3334 20.0003 19.1242 20.0003 21.3334Z" fill="#3286EE"/>
<path d="M12.0018 21.2232C12.0008 21.2598 12.0003 21.2965 12.0003 21.3334C12.0003 23.5425 13.7912 25.3334 16.0003 25.3334C18.2095 25.3334 20.0003 23.5425 20.0003 21.3334C20.0003 21.2965 19.9998 21.2598 19.9988 21.2232C19.9405 19.065 18.1726 17.3334 16.0003 17.3334C13.9293 17.3334 12.2258 18.9074 12.021 20.9244C12.011 21.023 12.0045 21.1227 12.0018 21.2232Z" fill="#3286EE"/>
<path d="M10.2346 22.9992L8.79397 24.4198C8.36188 24.8459 8.14583 25.0589 8.07107 25.2393C7.90071 25.6504 8.0465 26.1065 8.41743 26.3228C8.58021 26.4177 8.87382 26.4472 9.46104 26.5064C9.79259 26.5398 9.95836 26.5565 10.0972 26.6072C10.4081 26.7206 10.6499 26.9591 10.7649 27.2656C10.8163 27.4025 10.8333 27.566 10.8671 27.8929C10.9271 28.472 10.9571 28.7615 11.0533 28.922C11.2727 29.2878 11.7351 29.4316 12.1521 29.2636C12.335 29.1899 12.5511 28.9768 12.9832 28.5507L14.4237 27.1241C12.4071 26.5763 10.8126 25.0032 10.2346 22.9992Z" fill="#3286EE"/>
<path d="M17.5769 27.1241L19.0175 28.5507C19.4496 28.9768 19.6656 29.1899 19.8486 29.2636C20.2655 29.4316 20.728 29.2878 20.9473 28.922C21.0435 28.7615 21.0735 28.472 21.1335 27.8929C21.1674 27.566 21.1843 27.4025 21.2357 27.2656C21.3508 26.9591 21.5926 26.7206 21.9034 26.6072C22.0423 26.5565 22.2081 26.5398 22.5396 26.5064C23.1268 26.4472 23.4204 26.4177 23.5832 26.3228C23.9541 26.1065 24.0999 25.6504 23.9296 25.2393C23.8548 25.0589 23.6388 24.8459 23.2067 24.4198L21.7661 22.9992C21.1881 25.0032 19.5936 26.5763 17.5769 27.1241Z" fill="#3286EE"/>
</svg>
