<svg width="32" height="32" viewBox="0 0 32 32" fill="none" xmlns="http://www.w3.org/2000/svg">
<g clip-path="url(#clip0_2055_2545)">
<path d="M29.872 16.4145C29.7432 16.151 29.7432 15.8489 29.872 15.5855L31.0655 13.144C31.73 11.7846 31.2035 10.1643 29.8668 9.45507L27.4662 8.18133C27.2072 8.04395 27.0297 7.79945 26.979 7.51077L26.5095 4.83397C26.2481 3.3436 24.8694 2.34211 23.3715 2.55404L20.6807 2.93467C20.3903 2.97567 20.1031 2.88229 19.8924 2.67848L17.9392 0.788991C16.8517 -0.263129 15.1479 -0.263191 14.0604 0.788991L12.1072 2.67867C11.8965 2.88254 11.6093 2.97573 11.3189 2.93485L8.62811 2.55423C7.12968 2.34217 5.75156 3.34379 5.49012 4.83416L5.02063 7.51083C4.96994 7.79958 4.79238 8.04402 4.53344 8.18145L2.13283 9.4552C0.796216 10.1643 0.269719 11.7847 0.934215 13.1442L2.12765 15.5857C2.25639 15.8491 2.25639 16.1512 2.12765 16.4146L0.934153 18.8561C0.269657 20.2155 0.796154 21.8358 2.13277 22.545L4.53338 23.8187C4.79238 23.9561 4.96994 24.2006 5.02063 24.4893L5.49012 27.1661C5.72812 28.5228 6.89149 29.4743 8.22854 29.4742C8.36023 29.4742 8.49386 29.465 8.62817 29.446L11.319 29.0653C11.6091 29.0242 11.8965 29.1177 12.1073 29.3215L14.0604 31.211C14.6043 31.7371 15.3019 32.0001 15.9998 32.0001C16.6975 32 17.3956 31.737 17.9392 31.211L19.8924 29.3215C20.1032 29.1177 20.3904 29.0246 20.6807 29.0653L23.3715 29.446C24.8701 29.658 26.2481 28.6564 26.5095 27.166L26.9791 24.4894C27.0297 24.2006 27.2073 23.9562 27.4662 23.8187L29.8668 22.545C31.2035 21.8359 31.73 20.2155 31.0655 18.856L29.872 16.4145ZM12.3085 7.6947C14.1743 7.6947 15.6922 9.21263 15.6922 11.0784C15.6922 12.9441 14.1743 14.462 12.3085 14.462C10.4428 14.462 8.92485 12.9441 8.92485 11.0784C8.92485 9.21263 10.4428 7.6947 12.3085 7.6947ZM10.562 22.7427C10.3818 22.9229 10.1457 23.0131 9.90954 23.0131C9.67341 23.0131 9.43716 22.923 9.25704 22.7427C8.89667 22.3824 8.89667 21.7981 9.25704 21.4377L21.4375 9.2572C21.7978 8.89682 22.3822 8.89682 22.7426 9.2572C23.103 9.61757 23.103 10.2019 22.7426 10.5623L10.562 22.7427ZM19.691 24.3054C17.8252 24.3054 16.3073 22.7874 16.3073 20.9217C16.3073 19.056 17.8252 17.538 19.691 17.538C21.5567 17.538 23.0746 19.056 23.0746 20.9217C23.0746 22.7874 21.5567 24.3054 19.691 24.3054Z" fill="#3286EE"/>
<path d="M19.6911 19.3837C18.8431 19.3837 18.1531 20.0736 18.1531 20.9217C18.1531 21.7697 18.843 22.4597 19.6911 22.4597C20.5392 22.4597 21.2291 21.7697 21.2291 20.9217C21.2291 20.0736 20.5392 19.3837 19.6911 19.3837Z" fill="#3286EE"/>
<path d="M12.309 9.54031C11.4609 9.54031 10.771 10.2302 10.771 11.0783C10.771 11.9264 11.4609 12.6164 12.309 12.6164C13.157 12.6164 13.847 11.9264 13.847 11.0783C13.847 10.2303 13.157 9.54031 12.309 9.54031Z" fill="#3286EE"/>
</g>
<defs>
<clipPath id="clip0_2055_2545">
<rect width="32" height="32" fill="white"/>
</clipPath>
</defs>
</svg>
