<svg width="32" height="32" viewBox="0 0 32 32" fill="none" xmlns="http://www.w3.org/2000/svg">
<path fill-rule="evenodd" clip-rule="evenodd" d="M13.1707 5.6666C13.583 4.50006 14.6955 3.66669 16.0002 3.66669C17.3049 3.66669 18.4174 4.50006 18.8298 5.6666C19.0138 6.18732 19.5851 6.46024 20.1058 6.27619C20.6266 6.09215 20.8995 5.52082 20.7154 5.00011C20.0295 3.05947 18.1788 1.66669 16.0002 1.66669C13.8216 1.66669 11.9709 3.05947 11.285 5.00011C11.1009 5.52082 11.3738 6.09215 11.8946 6.27619C12.4153 6.46024 12.9866 6.18732 13.1707 5.6666ZM3.66327 10.788C3.59216 10.7418 3.51736 10.7057 3.44059 10.6796C3.64478 10.2561 3.90287 9.88833 4.22909 9.56212C5.79119 8.00002 8.30534 8.00002 13.3337 8.00002H18.667C23.6953 8.00002 26.2095 8.00002 27.7716 9.56212C28.0978 9.88837 28.3559 10.2561 28.5601 10.6797C28.4835 10.7059 28.4088 10.7418 28.3378 10.788C25.5373 12.6084 23.7778 13.7469 22.3157 14.4773C22.2272 14.0156 21.8212 13.6667 21.3337 13.6667C20.7814 13.6667 20.3337 14.1144 20.3337 14.6667V15.2774C17.5077 16.1301 14.4929 16.1301 11.667 15.2773V14.6667C11.667 14.1144 11.2193 13.6667 10.667 13.6667C10.1795 13.6667 9.77353 14.0155 9.68494 14.4771C8.22301 13.7467 6.46357 12.6082 3.66327 10.788ZM2.66699 18.6667C2.66699 16.0661 2.66699 14.138 2.8831 12.6663C5.91868 14.6394 7.8643 15.8978 9.66699 16.6728V17.3334C9.66699 17.8856 10.1147 18.3334 10.667 18.3334C11.212 18.3334 11.6551 17.8974 11.6668 17.3553C14.5071 18.1041 17.4935 18.1042 20.3339 17.3554C20.3456 17.8975 20.7887 18.3334 21.3337 18.3334C21.8859 18.3334 22.3337 17.8856 22.3337 17.3334V16.6729C24.1364 15.898 26.082 14.6397 29.1176 12.6665C29.3337 14.1382 29.3337 16.0662 29.3337 18.6667C29.3337 23.695 29.3337 26.2092 27.7716 27.7713C26.2095 29.3334 23.6953 29.3334 18.667 29.3334H13.3337C8.30534 29.3334 5.79119 29.3334 4.22909 27.7713C2.66699 26.2092 2.66699 23.695 2.66699 18.6667Z" fill="#3286EE"/>
</svg>
