<svg width="32" height="32" viewBox="0 0 32 32" fill="none" xmlns="http://www.w3.org/2000/svg">
<path d="M27.8 25H4.2C3 25 2 24 2 22.8V9.2C2 8 3 7 4.2 7H27.7C29 7 30 8 30 9.2V22.7C30 24 29 25 27.8 25Z" fill="#3286EE"/>
<path d="M26.4046 23H14.5954C14.2977 23 14 22.8065 14 22.4194V20.5806C14 20.2903 14.1985 20 14.5954 20H26.4046C26.7023 20 27 20.1935 27 20.5806V22.4194C27 22.7097 26.7023 23 26.4046 23Z" fill="#F4F4F4"/>
<path d="M11.0244 18H8H4.97561C4.5834 18 4.19119 18.7414 4.05253 18.3282C4.01873 18.2275 4 18.1176 4 18V10C4 9.5 4.39024 9 4.97561 9H11.0244C11.5122 9 12 9.4 12 10V18C12 18.0723 11.9943 18.1417 11.9833 18.2078C11.9031 18.6906 11.5392 18 11.0244 18Z" fill="white"/>
<path d="M14.5 10C14.2239 10 14 10.2239 14 10.5C14 10.7761 14.2239 11 14.5 11H26.5C26.7762 11 27 10.7761 27 10.5C27 10.2239 26.7762 10 26.5 10H14.5ZM14 13.5C14 13.2239 14.2239 13 14.5 13H26.5C26.7762 13 27 13.2239 27 13.5C27 13.7761 26.7762 14 26.5 14H14.5C14.2239 14 14 13.7761 14 13.5ZM14 16.5C14 16.2239 14.2239 16 14.5 16H26.5C26.7762 16 27 16.2239 27 16.5C27 16.7761 26.7762 17 26.5 17H14.5C14.2239 17 14 16.7761 14 16.5Z" fill="white"/>
<path d="M8.47558 10H7.49655C6.41961 10 5.63639 10.9204 5.73429 12.0454L5.77487 12.5752C5.47114 12.6487 5.24476 12.9331 5.24476 13.2727C5.24476 13.6516 5.52646 13.9617 5.88298 13.9869L5.9301 14.6022C6.00705 15.2453 6.4469 15.8252 7.05949 16.044C5.78604 16.3272 4.69582 17.1278 4 18.225C4.11056 18.6986 4.53077 19 4.95098 19H11.021C11.6084 19 12 18.5909 12 17.9773C11.2826 16.9798 10.2241 16.2648 9.00547 16.0223C9.56938 15.8044 9.96902 15.2886 10.042 14.6022L10.0891 13.9869C10.4457 13.9617 10.7273 13.6515 10.7273 13.2727C10.7273 12.9331 10.501 12.6487 10.1973 12.5752L10.2378 12.0454C10.3357 10.9204 9.45461 10 8.47558 10Z" fill="#321B41"/>
<path d="M15.5 22H25.5C25.7 22 26 21.8 26 21.5C26 21.2 25.8 21 25.5 21H15.5C15.2 21 15 21.2 15 21.5C15 21.8 15.2 22 15.5 22Z" fill="#321B41"/>
</svg>
