<svg width="85" height="66" viewBox="0 0 85 66" fill="none" xmlns="http://www.w3.org/2000/svg">
<g clip-path="url(#clip0_158_4033)">
<path d="M26.772 44.1158L26.772 17.1158L32.874 17.1158L32.874 44.1158L26.772 44.1158ZM36.2667 17.1158L63.8427 17.1158L63.8427 22.5158L53.1147 22.5158L53.1147 44.1158L46.9947 44.1158L46.9947 22.5158L36.2667 22.5158L36.2667 17.1158Z" fill="#3286EE"/>
<path d="M30.832 60.9647C37.8528 63.7213 45.7865 61.9828 52.9277 58.4873C59.9655 55.0372 66.5827 49.9805 72.2827 43.6954C75.1755 40.5036 77.9195 36.8954 79.648 32.6593C81.2509 28.7399 81.9418 24.2722 81.0091 20.2821C80.0763 16.292 77.7549 13.5264 75.1232 11.4017C72.0262 8.89739 68.4481 7.24742 64.7357 6.23785C57.4049 4.24712 49.4607 4.46283 41.7959 5.78373C34.1311 7.10463 26.8924 9.68595 19.8346 13.5058C13.345 17.0139 6.46934 22.1215 3.87964 30.6047C2.69371 34.4901 2.57843 38.6695 4.0461 42.1604C5.51376 45.6513 8.10128 47.939 10.8363 49.7306C17.5948 54.155 25.6044 55.9749 33.5039 56.3563C41.4033 56.7377 50.1103 55.5572 58.4042 54.0533C60.4127 53.6914 62.4192 53.3018 64.4245 52.9173C64.6775 52.8705 65.1731 52.6223 65.0455 52.2274C64.9178 51.8325 64.2694 51.8967 63.9931 51.9487C56.1182 53.4463 48.2155 54.9317 40.3309 55.2814C32.4462 55.6311 24.7838 54.819 17.6783 51.7974C11.9459 49.3609 4.92284 45.1922 4.71885 36.7056C4.62552 32.8227 5.89366 28.8705 7.85947 25.5881C9.93753 22.1159 12.8479 19.4279 15.8762 17.3007C18.9045 15.1735 22.3526 13.3606 25.7091 11.851C29.0655 10.3414 32.632 9.05141 36.1641 8.10046C43.2758 6.18307 50.5761 5.41924 57.6393 6.11225C61.3899 6.47965 65.0956 7.31925 68.5268 8.92252C71.6426 10.3782 74.6614 12.4291 76.8756 15.4182C79.0284 18.3164 80.0407 22.0707 79.631 26.1782C79.2213 30.2858 77.4481 34.435 75.1631 37.8729C72.8278 41.3908 69.9555 44.4628 67.0209 47.2317C64.0864 50.0007 61.0084 52.4035 57.7715 54.4852C51.3479 58.6228 44.0499 61.8249 37.0126 61.2956C35.2946 61.1694 33.6039 60.8054 32.0044 60.176C31.6549 60.0418 31.202 60.0072 30.8483 60.2683C30.585 60.4647 30.4991 60.8346 30.832 60.9647Z" fill="#3286EE" stroke="#3286EE"/>
</g>
<defs>
<clipPath id="clip0_158_4033">
<rect width="83.6141" height="62.6187" fill="white" transform="translate(1.14648 0.952759) rotate(1.0181)"/>
</clipPath>
</defs>
</svg>
