<svg width="32" height="32" viewBox="0 0 32 32" fill="none" xmlns="http://www.w3.org/2000/svg">
<path d="M29.3337 16C29.3337 23.3638 23.3641 29.3334 16.0003 29.3334C8.63653 29.3334 2.66699 23.3638 2.66699 16C2.66699 8.63622 8.63653 2.66669 16.0003 2.66669C23.3641 2.66669 29.3337 8.63622 29.3337 16Z" fill="#3286EE"/>
<path fill-rule="evenodd" clip-rule="evenodd" d="M16.0003 9.66669C16.5526 9.66669 17.0003 10.1144 17.0003 10.6667V15.5858L20.0408 18.6262C20.4313 19.0168 20.4313 19.6499 20.0408 20.0405C19.6502 20.431 19.0171 20.431 18.6266 20.0405L15.2932 16.7071C15.1057 16.5196 15.0003 16.2652 15.0003 16V10.6667C15.0003 10.1144 15.448 9.66669 16.0003 9.66669Z" fill="white"/>
</svg>
