<svg width="70" height="20" viewBox="0 0 70 20" fill="none" xmlns="http://www.w3.org/2000/svg">
<g clip-path="url(#clip0_2004_4520)">
<path d="M66.0191 17.4151C67.3776 17.4151 68.3399 17.1698 69.0568 16.6415V14.2452C68.321 14.7547 67.4342 15.0754 66.1889 15.0754C64.0946 15.0754 63.2267 13.4528 63.2267 10.8868C63.2267 8.18864 64.2833 6.81129 66.2078 6.81129C67.3399 6.81129 68.4531 7.20751 69.038 7.58487V5.09431C68.4153 4.75468 67.3399 4.5094 65.8682 4.5094C62.1135 4.5094 60.1701 7.20751 60.1701 10.9811C60.1889 15.1132 62.0946 17.4151 66.0191 17.4151ZM47.6606 16.3207V13.9245C46.755 14.5471 45.2078 15.0943 43.7927 15.0943C41.6418 15.0943 40.8304 14.0754 40.6984 12H47.7927V10.4528C47.7927 6.13204 45.887 4.5094 42.9625 4.5094C39.3776 4.5094 37.6795 7.24525 37.6795 11C37.6795 15.3207 39.8116 17.4151 43.5474 17.4151C45.4153 17.4151 46.7927 16.9056 47.6606 16.3207ZM20.7361 4.73581V9.64147H16.8116V4.73581H13.8682V17.1698H16.8116V11.9811H20.7361V17.1698H23.6795V4.73581H20.7361ZM36.9436 14.8302H35.6418V4.73581H27.0757V5.79242C27.0757 8.83015 26.887 12.7547 25.8493 14.8302H24.9059V20H27.6229V17.1698H34.2078V20H36.9248V14.8302H36.9436ZM57.038 17.1698H60.3776L55.6606 10.4717L59.8116 4.73581H56.8493L52.6984 10.4717V4.73581H49.755V17.1698H52.6984V11.0566L57.038 17.1698ZM42.887 6.81129C44.3399 6.81129 44.7927 8.01883 44.7927 9.58487V9.83015H40.6984C40.7738 7.84902 41.4908 6.81129 42.887 6.81129ZM32.6984 14.8302H28.5474C29.3587 12.9622 29.5851 9.566 29.5851 7.41506V7.0377H32.6984V14.8302Z" fill="black"/>
<path d="M11.4151 17.1698H8.41509V2.32075H7.07547C4.62264 2.32075 3.33962 3.54717 3.33962 5.37736C3.33962 7.45283 4.22641 8.41509 6.0566 9.64151L7.56604 10.6604L3.22642 17.1698H0L3.90566 11.3585C1.66038 9.75472 0.396226 8.18868 0.396226 5.54717C0.396226 2.24528 2.69811 0 7.0566 0H11.3962V17.1698H11.4151Z" fill="#FC3F1D"/>
</g>
<defs>
<clipPath id="clip0_2004_4520">
<rect width="69.2453" height="20" fill="white"/>
</clipPath>
</defs>
</svg>
