<svg width="160" height="25" viewBox="0 0 160 25" fill="none" xmlns="http://www.w3.org/2000/svg">
<path d="M8.384 -1.90735e-06V21.312L5.664 18.656H23.648V24H2.336V-1.90735e-06H8.384ZM36.009 24.512C33.833 24.512 31.881 24.1067 30.153 23.296C28.4463 22.4853 27.1023 21.3547 26.121 19.904C25.1397 18.4533 24.649 16.7573 24.649 14.816C24.649 12.9173 25.1183 11.2533 26.057 9.824C26.9957 8.39467 28.2863 7.27467 29.929 6.464C31.593 5.65333 33.4703 5.248 35.561 5.248C37.6943 5.248 39.529 5.71733 41.065 6.656C42.601 7.59467 43.785 8.91733 44.617 10.624C45.449 12.3307 45.865 14.336 45.865 16.64H29.417V12.896H42.601L40.457 14.24C40.393 13.2373 40.1477 12.3947 39.721 11.712C39.3157 11.008 38.7717 10.4747 38.089 10.112C37.4063 9.728 36.5957 9.536 35.657 9.536C34.633 9.536 33.7477 9.73867 33.001 10.144C32.2543 10.5493 31.6677 11.1147 31.241 11.84C30.8357 12.5653 30.633 13.408 30.633 14.368C30.633 15.584 30.8997 16.6187 31.433 17.472C31.9877 18.3253 32.777 18.976 33.801 19.424C34.8463 19.872 36.1157 20.096 37.609 20.096C38.9743 20.096 40.3397 19.9147 41.705 19.552C43.0703 19.168 44.297 18.6347 45.385 17.952V21.824C44.1477 22.6773 42.729 23.3387 41.129 23.808C39.5503 24.2773 37.8437 24.512 36.009 24.512ZM65.4023 24L64.6023 17.376L65.4663 14.88L64.6023 12.416L65.4023 5.76H71.5783L70.4583 14.88L71.5783 24H65.4023ZM66.8743 14.88C66.5543 16.8213 65.9463 18.5173 65.0503 19.968C64.1543 21.3973 63.0236 22.5173 61.6583 23.328C60.2929 24.1173 58.7569 24.512 57.0503 24.512C55.2583 24.512 53.6796 24.1067 52.3143 23.296C50.9703 22.4853 49.9143 21.3653 49.1463 19.936C48.3783 18.4853 47.9943 16.8 47.9943 14.88C47.9943 12.96 48.3783 11.2853 49.1463 9.856C49.9143 8.40533 50.9703 7.27467 52.3143 6.464C53.6796 5.65333 55.2583 5.248 57.0503 5.248C58.7569 5.248 60.2929 5.65333 61.6583 6.464C63.0236 7.25333 64.1543 8.36267 65.0503 9.792C65.9676 11.2213 66.5756 12.9173 66.8743 14.88ZM54.0103 14.88C54.0103 15.8613 54.2129 16.736 54.6183 17.504C55.0236 18.2507 55.5783 18.848 56.2823 19.296C57.0076 19.7227 57.8396 19.936 58.7783 19.936C59.7169 19.936 60.6023 19.7227 61.4343 19.296C62.2876 18.848 63.0343 18.2507 63.6743 17.504C64.3143 16.736 64.7943 15.8613 65.1143 14.88C64.7943 13.8987 64.3143 13.0347 63.6743 12.288C63.0343 11.52 62.2876 10.9227 61.4343 10.496C60.6023 10.048 59.7169 9.824 58.7783 9.824C57.8396 9.824 57.0076 10.048 56.2823 10.496C55.5783 10.9227 55.0236 11.52 54.6183 12.288C54.2129 13.0347 54.0103 13.8987 54.0103 14.88ZM74.0872 5.76H80.1033L81.1913 12.32V24H75.2393V11.84L74.0872 5.76ZM89.8953 5.504V10.624C89.3193 10.496 88.7433 10.4 88.1673 10.336C87.6126 10.272 87.1006 10.24 86.6313 10.24C85.6073 10.24 84.6793 10.4533 83.8473 10.88C83.0366 11.2853 82.3859 11.936 81.8953 12.832C81.4259 13.728 81.1913 14.8907 81.1913 16.32L80.0073 14.848C80.1566 13.5467 80.4019 12.32 80.7433 11.168C81.0846 10.016 81.5539 9.00267 82.1513 8.128C82.7486 7.232 83.4846 6.528 84.3593 6.016C85.2553 5.504 86.3326 5.248 87.5913 5.248C87.9539 5.248 88.3379 5.26933 88.7433 5.312C89.1486 5.35467 89.5326 5.41867 89.8953 5.504ZM91.431 5.76H97.351L98.535 12.864V24H92.583V11.968L91.431 5.76ZM105.351 5.248C107.1 5.248 108.583 5.6 109.799 6.304C111.036 6.98667 111.975 7.968 112.615 9.248C113.276 10.528 113.607 12.0533 113.607 13.824V24H107.655V14.72C107.655 13.2053 107.282 12.064 106.535 11.296C105.788 10.5067 104.722 10.112 103.335 10.112C102.354 10.112 101.5 10.3253 100.775 10.752C100.071 11.1573 99.5163 11.744 99.111 12.512C98.727 13.2587 98.535 14.1547 98.535 15.2L96.647 14.208C96.8817 12.2667 97.4043 10.6347 98.215 9.312C99.047 7.98933 100.071 6.98667 101.287 6.304C102.524 5.6 103.879 5.248 105.351 5.248ZM125.68 -1.90735e-06H131.728V24H125.68V-1.90735e-06ZM143.983 2.688H150.031V24H143.983V2.688ZM134.639 -1.90735e-06H159.375V5.344H134.639V-1.90735e-06Z" fill="#25224A"/>
</svg>
